<svg xmlns="http://www.w3.org/2000/svg" width="100%" height="100%" viewBox="0 0 48 64" fill="none">
  <path fill-rule="evenodd" d="M10 2h20a10 10 0 0 1 9.8 8h-4.1A6 6 0 0 0 30 6H10a6 6 0 0 0-6 6v33a6 6 0 0 0 6 6h20a6 6 0 0 0 6-6h4v9a10 10 0 0 1-10 10H10A10 10 0 0 1 0 54V12A10 10 0 0 1 10 2Zm13 55a2.5 2.5 0 1 0-5 0 2.5 2.5 0 0 0 5 0Z" fill="currentColor"/>
  <rect x="13" y="20" width="20" height="26" rx="4" fill="var(--ui-brand-highlight, #ff7857)" fill-opacity=".48"/>
  <rect x="21" y="12" width="24" height="29" rx="4" fill="var(--ui-brand-highlight, #ff7857)" fill-opacity=".68"/>
  <rect x="21" y="12" width="16" height="36" rx="4" fill="var(--ui-brand-highlight, #ff7857)" fill-opacity=".76"/>
  <rect x="21" y="12" width="16" height="29" rx="4" fill="var(--ui-brand-accent, #f04426)" fill-opacity=".5"/>
</svg>
